<?xml version="1.0" encoding="UTF-8"?><svg id="_圖層_2" xmlns="http://www.w3.org/2000/svg" viewBox="0 0 251.55 251.55"><defs><style>.cls-1{fill:#f3c35c;}.cls-2{fill:#3a3a3a;}.cls-3{fill:#fff;}.cls-4{fill:none;stroke:#fff;stroke-miterlimit:10;stroke-width:1.5px;}</style></defs><g id="_圖層_1-2"><circle class="cls-2" cx="125.78" cy="125.78" r="125.78"/><path class="cls-3" d="M62.66,64.14c-.91.1-2.34.37-3.77.67.24.74.4,1.47.47,2.13-.55.13-1.46.43-2.26.75,3.54,0,7.64-1.17,11.03-3.26.05,1.19.51,3.09.94,4.2-2.76,1.38-5.92,2.13-9.1,2.31l5.12,4.08-2.4,3.01-4.95-3.94c.51,3.09.44,6.27-.3,9.25-1.08-.13-2.97-.13-4.07.05,1.34-4.17,1.41-8.95.19-12.63l-4.38-3.49-2.77,3.48,2.32-1.99c.54.72,1.04,1.46,1.48,2.23,1.04-.22,2.14-.44,2.84-.52l.52,3.48c-.52,0-1.18.08-1.9.18.46,1.39.74,2.76.78,4.08-.88.06-2.69.41-3.6.71.15-2.63-.93-5.41-2.78-7.75l-2.38,2.99-2.78-2.21,5.5-6.9-2.29-1.82,2.4-3.01,2.29,1.82,5.72-7.18,2.78,2.21-3.55,4.46,2.28-1.98c.56.7,1.05,1.45,1.5,2.21,1.62-.43,3.54-.95,4.72-1.16l.4,3.51ZM51.59,64.27l4.24,3.38h.09c-.18-1.93-1.16-3.95-2.53-5.65l-1.81,2.27Z"/><path class="cls-3" d="M92.43,49.87c.73,1.23.78,1.95.1,2.82-.69.85-1.83,1.52-3.19,2.33-.59-.61-1.55-1.23-2.25-1.63.74-.38,1.79-1,2.05-1.16.27-.19.35-.29.2-.55l-.27-.45-4.17,2.48,1.93,3.25-3.1,1.84-1.93-3.25-3.74,2.22,1.72,2.9-3.03,1.8-2.96-4.99,6.78-4.02-.29-.5-5.51,3.27-3.27-5.51,5.85-3.47c-.08-.33-.14-.67-.21-.98-3,2.04-6.01,4.09-8.23,5.58l-1.23-1.68c.98-.64,2.16-1.4,3.47-2.23l-.33-.56-2.88,1.71-.87-1.46,2.88-1.71-.26-.43-3.42,2.03-.87-1.46,3.42-2.03-.27-.45-2.58,1.53-.84-1.42,2.58-1.53-.65-1.1,2.88-1.71.65,1.1,2.69-1.59.84,1.42-2.69,1.59.27.45,3.29-1.95.87,1.46-3.29,1.95.26.43,2.86-1.7.87,1.46-2.86,1.7.25.43c1.14-.73,2.32-1.52,3.47-2.29l.71,1.29,2.03-.8-.02,1.29,5.96-3.53,3.27,5.51-6,3.56.29.5,7.25-4.3,1.52,2.56ZM84.06,33.15l1.31,2.22-1.83,1.08,1.56,2.62c.68,1.14.75,1.76.16,2.58s-1.5,1.39-2.75,2.13c-.59-.55-1.58-1.19-2.25-1.54.66-.36,1.52-.87,1.76-1.01.26-.15.31-.3.17-.54l-1.51-2.54-2.3,1.36c.95.34,2.05.82,2.66,1.25l-1.46,2.38c-.65-.51-1.95-1.17-3-1.57l1.01-1.59-1.91,1.14-1.31-2.22,5.01-2.97-.94-1.59,2.86-1.7.94,1.59,1.83-1.08ZM75.45,51.1l8.97-5.32-.28-.47-8.97,5.32.28.47ZM76.6,53.04l8.97-5.32-.28-.47-8.97,5.32.28.47Z"/><path class="cls-3" d="M101.3,31.5c-.88-.94-2.64-2.4-4.01-3.42l2.34-2.12c1.41.94,3.09,2.22,4.02,3.07l-2.35,2.47ZM106.01,37.44c.06,2.05-.07,3.87-.39,5.5,1.78,1.89,4.34,1.72,7.92,1.11,2.66-.47,6.94-1.41,9.84-2.23-.36.8-.55,2.48-.55,3.47-2.68.65-5.84,1.29-8.82,1.82-4.21.75-7,.79-9.25-1.17-.65,1.49-1.47,2.72-2.52,3.7-.56-.59-1.94-1.61-2.68-1.96,1.96-1.67,3.08-4.21,3.33-7.42l-1.72.31c-.57.1-1.3.41-1.48.67-.3-.68-1.18-2.05-1.58-2.61.4-.17.78-.44,1.19-1.05.3-.43.95-1.67,1.53-2.94l-2.76.49-.5-2.81,4.97-.88.27-.18,2.28.56c-.65,1.49-1.7,3.86-2.64,5.7l1.23-.22.53-.17,1.81.31ZM120.08,27.75l-15.85,2.82-.46-2.61,6.15-1.09c-.4-.54-.87-1.17-1.26-1.65l3.08-1.82c.63.67,1.49,1.64,1.92,2.25l-1.23.78,7.19-1.28.46,2.61ZM118.57,31.25l-12.08,2.15-.44-2.46,12.08-2.15.44,2.46ZM106.61,34.09l12.08-2.15.44,2.46-12.08,2.15-.44-2.46ZM106.91,37.33l12.65-2.25,1.15,6.47-12.65,2.25-1.15-6.47ZM110.96,40.73l5.78-1.03-.27-1.5-5.78,1.03.27,1.5Z"/><path class="cls-3" d="M145.77,31.68c-.27.33-.51.67-.77.97l7.15,1.35-2.97,15.72-3.73-.7.19-1.01-10.46-1.98-.19,1.01-3.56-.67,2.97-15.72,6.53,1.23c.19-.35.36-.67.5-1.02l-9.04-1.71.62-3.29,5.23.99c-.34-.78-.81-1.65-1.24-2.34l3.46-.82c.77,1.04,1.56,2.41,1.91,3.36l-1.19.36,5.13.97c.83-.89,1.74-2.06,2.32-3l3.99,1.62c-.79.79-1.58,1.51-2.31,2.13l5.13.97-.62,3.29-9.06-1.71ZM146.21,44.94l.22-1.15-10.46-1.98-.22,1.15,10.46,1.98ZM136.47,39.13l10.46,1.98.21-1.08-10.46-1.98-.2,1.08ZM147.83,36.37l-10.46-1.97-.19.98,10.46,1.98.19-.98Z"/><path class="cls-3" d="M161.66,51.37l-.4.66-2.48-1.51,3.51-5.77,6.04,3.68-3.1,5.1-3.57-2.17ZM180.44,49.98c-.26.43-.58.91-.9,1.38-1.47,4.43-1.64,7.6-.39,11.08-1.06.11-2.43.54-3.31,1.12-.76-2.6-.92-4.98-.54-7.58-1.9,1.48-4.23,2.67-7.08,3.12.02-.6-.09-1.49-.25-2.29-.36.31-.79.39-1.36.31-1-.14-2.01-.73-3.38-1.56.27-.74.46-1.86.5-2.65.68.47,1.62,1.04,1.88,1.2.29.15.41.14.56-.1l3.43-5.64-7.77-4.73,1.61-2.65,7.65,4.65,3.65-6-7.39-4.5,1.57-2.58,11.17,6.79-1.57,2.58-1.05-.64-2.26,3.72c2.08-1.31,4.26-3.49,6.15-5.83l2.63,2.27c-.63.75-1.3,1.46-1.96,2.17l3.44,2.09.49.15,1.75,1.79c-1.72,2.05-3.8,4.27-5.28,5.65l-1.98-2.17c.75-.8,1.74-1.95,2.69-3.13l-3.48-2.12c-.25.23-.51.45-.78.66l2.67,1.62-1.08,1.77ZM163.5,48.34l-.58.96,1.2.73.58-.96-1.2-.73ZM173.19,39.48l-2.97,4.89-5.57-3.39,2.97-4.89,5.57,3.39ZM169.69,40.05l-1.11-.68-.6.98,1.11.68.6-.98ZM169.01,55.43c4.59-1.15,7.27-4.79,8.73-7.18l.94-1.54c-.94.77-1.88,1.4-2.76,1.89h.02s-1.61,2.66-1.61,2.66l-2.03-1.23-3.29,5.4ZM173.8,47.32l1.49.91c-.24-.56-.61-1.25-.94-1.83l-.56.92Z"/><path class="cls-3" d="M199.08,54.01l7.41,9.51-2.35,1.83-1.78-2.29-1.6,1.25,1.78,2.29-13.77,10.73-1.77-2.27.95-.74-3.78-4.85-1.22.95-1.69-2.17,14.04-10.94,1.64,2.11,1.6-1.25-1.81-2.33,2.35-1.83ZM190.15,72.61l4.06-3.17-.49-.63c-.88-1.12-.69-1.74.81-2.91l2.31-1.8-.48-.61-1.44,1.12c-1.1.86-2.62,1.76-4.22,1.58.07-.44.13-1.34.07-1.86l-4.4,3.43,3.78,4.85ZM192.8,69.87l-2.13,1.66-3.12-4,2.13-1.66,3.12,4ZM195.75,80.89c.48.61,1.04.36,3.62-1.49-.01.96.45,2.53.86,3.42-3.65,2.4-5.27,2.52-6.91.41l-1.77-2.27c-1.81-2.33-1.59-3.71,1.17-5.86l7.85-6.12,3.8,4.87,3.39-2.64-3.84-4.93,2.72-2.12,5.99,7.69-8.84,6.88-3.73-4.79-5.11,3.98c-.83.65-.89.82-.39,1.45l1.18,1.52ZM194.65,61.3l-3.71,2.89c1.19.06,2.08-.54,2.83-1.13l1.4-1.09-.52-.67ZM198.43,66.15l-.41-.53-2.27,1.77c-.32.25-.32.28-.23.4l.12.16c.11.14.15.2.22.21l2.56-2ZM200.66,60.87l-.42-.53-1.6,1.25.42.53,1.6-1.25Z"/><path class="cls-3" d="M221.69,91.61c-1.63-.04-3.38-.17-5.08-.4l-17.15,5.36-1.03-3.29,11.52-3.6c-.64-.22-1.24-.45-1.82-.71.79-.51,2.58-1.98,3.32-2.79,2.72,1.25,6.59,1.97,10.22,1.96v3.48ZM226.18,106.24l-21.33,6.66-1.03-3.29,1.17-.37-2.54-8.11-1.38.43-.98-3.15,21.54-6.73,4.55,14.55ZM207.98,108.31l14.2-4.43-2.54-8.11-14.19,4.44,2.53,8.11ZM216.21,102.65l-1.77.55.64,2.05-6.47,2.02-2.04-6.54,6.46-2.02.57,1.84,1.77-.55-.7-2.24,2.46-.77.7,2.24,2.29-.72.83,2.65-2.29.72.76,2.43-2.46.77-.76-2.43ZM211.94,103.4l-.48-1.53-1.81.57.48,1.53,1.81-.57Z"/><path class="cls-3" d="M217.97,142.91c-3.52-.96-6.36-2.44-8.56-4.27-.97,1.14-1.77,2.45-2.37,3.96-.68-.84-2.03-2-2.95-2.58.75-1.56,1.68-2.88,2.77-4.04-1-1.29-1.77-2.69-2.33-4.2.64-.31,1.72-1.07,2.48-1.73-.34-3.85-.65-7.88-.87-10.9l3.3-.3c.05,1.73.16,3.97.29,6.35,1,.38,2.23.79,3.25,1.02l.14-2.4c-.87.35-1.96.56-2.69.59l-.73-3.2c.8.02,2.06-.18,3.01-.5l.47,2.21.16-2.67,6.46.39-.59,9.91-6.46-.39.18-2.97-.64,2.32c-.8-.35-1.61-.7-2.34-1.04l.13,2.01-2.1-.03c.43,1.15,1.02,2.22,1.71,3.21,1.69-1.1,3.62-1.96,5.79-2.61l.62,3.04.19-3.12,3.22.19-.23,3.84,2.29.14.22-3.69,3.29.2-.22,3.69,3.34.2-.22,3.62-3.34-.2-.25,4.17-3.29-.2.25-4.17-2.29-.14-.08,1.37.09.63-1.09,2.26ZM216.09,134.3c-1.43.44-2.79,1.08-4.02,1.91,1.1.89,2.36,1.64,3.77,2.23l.25-4.14ZM215.85,123.72l-.19,3.09,1.07.07.19-3.09-1.07-.06ZM224.31,124.03l.25-4.07,2.92.18-.24,4.07,1.62.1-.21,3.54-1.62-.1-.22,3.64-2.92-.18.22-3.64-1.02-.06-.2,3.39-2.89-.17.61-10.23,2.89.17-.2,3.29,1.02.06Z"/><path class="cls-3" d="M198.37,166.12c-.5,1.12-.12,1.56,1.98,2.75-.85.5-1.99,1.57-2.58,2.41-3.1-1.88-3.84-3.36-2.58-6.17l1.93-4.31c1.46-3.26,2.82-3.86,6.56-2.18l15.4,6.89-5.27,11.77-12.99-5.81,1.44-3.22,1.28.57,2.38-5.32-3.7-1.65c-1.46-.65-1.68-.59-2.25.69l-1.6,3.58ZM205.13,157.92l1.91-4.27-1.94-.87,1.34-2.99,15.81,7.08-3.25,7.26-13.88-6.21ZM212.21,172.7l.55-1.23-5.68-2.54-.55,1.23,5.68,2.54ZM214.59,167.38l-5.68-2.54-.49,1.09,5.68,2.54.49-1.1ZM217.88,158.5l-7.8-3.49-.55,1.23,7.81,3.49.55-1.23Z"/><path class="cls-3" d="M191.14,178.37c1.08,1,1.11,2.49.11,3.57s-2.48,1.18-3.57.18c-1.08-1-1.15-2.52-.15-3.6,1.02-1.1,2.52-1.15,3.6-.15ZM200.01,186.89l3.15,2.7-3.32,3.6-2.95-2.92-5.3-5.91,2.1-2.28,6.32,4.8Z"/><circle class="cls-1" cx="125.78" cy="125.78" r="61.83"/><polygon class="cls-2" points="155.16 125.78 110.39 99.93 110.39 151.63 155.16 125.78"/><path class="cls-4" d="M102.79,221.02c-42.48-2.52-74.87-38.99-72.35-81.47"/><path class="cls-4" d="M101.29,200.27c-30.18-1.79-53.2-27.71-51.42-57.89"/></g></svg>