<svg width="553" height="376" viewBox="0 0 553 376" fill="none" xmlns="http://www.w3.org/2000/svg">
<g clip-path="url(#clip0_9_45)">
<path d="M70.4361 139.385V163.694C68.6693 163.598 66.9466 163.486 65.2817 163.35H65.2579C48.9757 161.994 38.0586 158.453 37.9125 153.638C37.746 148.255 51.0483 142.77 70.4327 139.389L70.4361 139.385Z" stroke="#1F1D18" stroke-linejoin="round"/>
<path d="M104.329 162.776C101.539 163.048 98.6854 163.282 95.7734 163.466C90.5375 163.795 85.4544 163.955 80.6295 163.948V137.866C85.1995 137.306 89.9836 136.854 94.9274 136.544C97.3636 136.388 99.7591 136.272 102.114 136.194L104.326 162.776H104.329Z" stroke="#1F1D18" stroke-linejoin="round"/>
<path d="M61.5543 163.415L61.5271 177.939C60.8068 177.864 60.1035 177.793 59.4137 177.715C58.7172 177.63 58.0376 177.545 57.3682 177.457C56.7057 177.375 56.0465 177.28 55.4077 177.185C54.8403 177.1 54.2864 177.011 53.7394 176.923C53.6307 176.903 53.5185 176.886 53.4132 176.865C53.0428 176.804 52.6793 176.74 52.3259 176.675C52.2716 176.665 52.2206 176.655 52.1662 176.648C51.8638 176.59 51.5648 176.536 51.2726 176.475C50.9294 176.41 50.5998 176.339 50.2703 176.274C49.9305 176.203 49.5873 176.125 49.2577 176.046C48.9621 175.985 48.6733 175.917 48.3913 175.842C48.0447 175.764 47.7049 175.679 47.3685 175.591C47.0593 175.516 46.7637 175.435 46.4749 175.353C46.1793 175.272 45.8939 175.19 45.6153 175.102C45.0682 174.942 44.5416 174.775 44.0387 174.595C44.0217 174.595 44.0115 174.588 44.0013 174.582C43.7397 174.497 43.4883 174.402 43.2436 174.31C42.999 174.218 42.7577 174.126 42.5301 174.035C42.3126 173.943 42.1054 173.854 41.8981 173.773C41.6603 173.668 41.4258 173.559 41.205 173.453C40.8312 173.277 40.4744 173.093 40.1381 172.906C40.0735 172.869 40.0089 172.835 39.9478 172.798C39.7983 172.709 39.6522 172.624 39.5061 172.533C39.3396 172.431 39.1765 172.325 39.027 172.22C39.027 172.22 39.0202 172.22 39.0202 172.213C38.8639 172.108 38.7144 171.999 38.5751 171.89C38.4324 171.778 38.2965 171.666 38.1707 171.554L37.9023 153.645C38.0484 158.457 48.9689 161.998 65.2511 163.357L61.5441 163.422L61.5543 163.415Z" stroke="#1F1D18" stroke-linejoin="round"/>
<path d="M105.556 177.511C102.464 177.824 99.2867 178.082 96.0452 178.289C95.0293 178.35 94.01 178.405 93.0042 178.463C92.447 178.49 91.8965 178.517 91.3461 178.534C90.8908 178.561 90.4355 178.585 89.9734 178.595C88.6958 178.646 87.4318 178.69 86.1781 178.724C85.4509 178.741 84.717 178.758 84.0001 178.768C83.4836 178.779 82.9672 178.779 82.4609 178.785C81.9104 178.796 81.3668 178.796 80.8265 178.796C80.7586 178.802 80.6974 178.796 80.6329 178.802V163.952C85.4577 163.959 90.5374 163.795 95.7768 163.469C98.6887 163.286 101.543 163.051 104.332 162.779L105.043 171.326L105.559 177.514L105.556 177.511Z" stroke="#1F1D18" stroke-linejoin="round"/>
<path d="M56.4984 254.663L47.338 267.373C42.4418 265.711 39.6012 263.597 39.523 261.157L39.3396 248.876C39.4381 248.974 39.5502 249.069 39.6624 249.165C39.7779 249.263 39.8968 249.358 40.0191 249.453C40.1414 249.549 40.274 249.644 40.4099 249.736C40.6783 249.919 40.9671 250.103 41.2729 250.279C41.5787 250.463 41.9083 250.636 42.2515 250.806C42.4282 250.894 42.6082 250.979 42.7917 251.068C42.9684 251.153 43.1587 251.234 43.3524 251.319C43.5426 251.404 43.7431 251.486 43.9402 251.564C44.1406 251.649 44.3445 251.724 44.5586 251.802C45.2755 252.074 46.0468 252.335 46.8725 252.58C47.1613 252.668 47.4603 252.757 47.7627 252.842C48.0617 252.927 48.3743 253.008 48.6869 253.093C48.8975 253.147 49.1082 253.205 49.3257 253.253C49.7538 253.365 50.1921 253.463 50.644 253.565C51.0959 253.671 51.5546 253.773 52.0235 253.864C52.258 253.909 52.4958 253.96 52.7336 254.004C52.8492 254.028 52.9681 254.048 53.0904 254.075C53.386 254.13 53.685 254.187 53.9908 254.242C54.3034 254.296 54.6126 254.354 54.9286 254.401C55.1291 254.442 55.3296 254.473 55.53 254.5C55.8358 254.551 56.1416 254.599 56.4542 254.646C56.4712 254.653 56.4916 254.653 56.5086 254.656L56.4984 254.663Z" stroke="#1F1D18" stroke-linejoin="round"/>
<path d="M63.1852 262.758L63.1683 270.52C61.3776 270.326 59.6719 270.098 58.0478 269.847L63.1852 262.758Z" stroke="#1F1D18" stroke-linejoin="round"/>
<path d="M85.1451 256.287L95.8414 271.08C90.5646 271.386 85.4679 271.509 80.6329 271.464V256.315C82.1109 256.325 83.6195 256.315 85.1451 256.287Z" stroke="#1F1D18" stroke-linejoin="round"/>
<path d="M122.973 267.957C118.209 268.82 113.061 269.555 107.645 270.125L97.3262 255.815C97.3534 255.815 97.3805 255.808 97.4111 255.808C105.899 255.268 113.962 254.357 121.23 253.158L121.695 268.035L122.969 267.957H122.973Z" stroke="#1F1D18" stroke-linejoin="round"/>
<path d="M154.232 242.619C151.698 248.281 149.703 254.235 148.317 260.423C144.994 262.18 140.424 263.842 134.913 265.317L134.45 250.483C144.002 248.104 151.049 245.206 154.222 242.205L154.229 242.623L154.232 242.619Z" stroke="#1F1D18" stroke-linejoin="round"/>
<path d="M85.1451 256.287C83.6161 256.315 82.1109 256.325 80.6329 256.315V250.048L85.1451 256.287Z" stroke="#1F1D18" stroke-linejoin="round"/>
<path d="M154.226 242.205C151.052 245.206 144.002 248.104 134.454 250.483L134.087 238.891L127.855 239.286L120.812 239.731L121.233 253.158C113.962 254.357 105.902 255.271 97.4146 255.808C97.3874 255.808 97.3602 255.815 97.3296 255.815L80.6295 232.649V178.802C80.6975 178.796 80.7586 178.802 80.8232 178.796C81.3634 178.796 81.9071 178.796 82.4575 178.785C82.9638 178.779 83.4803 178.779 83.9967 178.768C84.7137 178.758 85.4476 178.741 86.1747 178.724C87.4319 178.69 88.6925 178.646 89.97 178.595C90.4321 178.585 90.8874 178.561 91.3427 178.534C91.8932 178.517 92.4436 178.49 93.0009 178.463C94.0066 178.408 95.0259 178.35 96.0419 178.289C99.2834 178.082 102.464 177.824 105.552 177.511L105.909 181.81C106.252 185.178 113.768 187.465 125.467 188.386C125.589 188.396 125.711 188.403 125.84 188.413C127.193 188.518 128.593 188.603 130.047 188.668C134.121 188.844 138.592 188.889 143.356 188.773C146.587 188.695 149.955 188.545 153.417 188.328L154.222 242.201L154.226 242.205Z" stroke="#1F1D18" stroke-linejoin="round"/>
<path d="M70.4361 163.693V190.663L61.5101 190.822L61.5339 177.936L61.5611 163.415L65.2647 163.347H65.2885C66.95 163.486 68.6727 163.598 70.4429 163.69L70.4361 163.693Z" stroke="#1F1D18" stroke-linejoin="round"/>
<path d="M61.5067 190.826L61.5305 177.939C60.8068 177.868 60.1069 177.797 59.4137 177.718C58.7172 177.633 58.041 177.552 57.375 177.457C56.7091 177.379 56.0533 177.28 55.4111 177.185C54.8403 177.1 54.2898 177.012 53.7428 176.923C53.6307 176.906 53.5219 176.882 53.4132 176.869C53.0463 176.808 52.6793 176.74 52.3293 176.675C52.275 176.668 52.224 176.658 52.1696 176.648C51.8706 176.594 51.5682 176.536 51.2794 176.475C50.9362 176.407 50.6066 176.342 50.2737 176.274C49.9339 176.203 49.5941 176.125 49.2611 176.046C48.9655 175.985 48.6835 175.917 48.3947 175.839C48.0515 175.761 47.7117 175.679 47.3787 175.588C47.0662 175.509 46.7739 175.431 46.4851 175.35C46.1861 175.265 45.9007 175.19 45.6221 175.098C45.0717 174.939 44.5484 174.769 44.0489 174.592C44.0319 174.592 44.0217 174.585 44.0115 174.575C43.7499 174.49 43.4951 174.398 43.2504 174.306C43.0058 174.211 42.7679 174.123 42.5403 174.028C42.3228 173.939 42.1122 173.854 41.9083 173.766C41.6705 173.661 41.436 173.549 41.2118 173.45C40.838 173.273 40.4846 173.09 40.1483 172.9C40.0803 172.866 40.0157 172.828 39.958 172.794C39.8085 172.706 39.6522 172.621 39.5129 172.529C39.3464 172.431 39.1833 172.322 39.0338 172.216C39.0338 172.216 39.027 172.216 39.027 172.206C38.8707 172.101 38.7212 171.996 38.5819 171.883C38.4426 171.771 38.3101 171.663 38.1809 171.55L39.3362 248.876C39.4347 248.974 39.5468 249.069 39.659 249.165C39.7745 249.263 39.8934 249.358 40.0157 249.453C40.1381 249.549 40.2706 249.644 40.4065 249.735C40.6749 249.926 40.9637 250.109 41.2695 250.279C41.5753 250.463 41.9049 250.639 42.2481 250.806C42.4248 250.894 42.6049 250.979 42.7883 251.068C42.965 251.153 43.1553 251.234 43.349 251.319C43.5392 251.404 43.7397 251.486 43.9368 251.564C44.1373 251.649 44.3411 251.724 44.5552 251.802C45.2721 252.074 46.0434 252.335 46.8691 252.58C47.1579 252.668 47.4569 252.757 47.7593 252.842C48.0583 252.927 48.3709 253.008 48.6835 253.093C48.8942 253.147 49.1048 253.205 49.3223 253.253C49.7504 253.358 50.1887 253.463 50.6406 253.565C51.0925 253.664 51.5478 253.766 52.0201 253.864C52.2546 253.909 52.4924 253.96 52.7303 254.004C52.8458 254.028 52.9647 254.048 53.087 254.075C53.3826 254.13 53.6816 254.187 53.9874 254.242C54.3 254.296 54.6092 254.354 54.9252 254.401C55.1257 254.442 55.3262 254.473 55.5266 254.5C55.8324 254.551 56.1382 254.598 56.4508 254.646C56.4678 254.653 56.4882 254.653 56.5052 254.656L63.2192 245.338L64.6429 243.37L69.1891 237.06L70.4395 235.327V190.659L61.5135 190.819L61.5067 190.826Z" stroke="#1F1D18" stroke-linejoin="round"/>
<path d="M70.4361 252.723V271.124C67.8946 270.968 65.472 270.768 63.1717 270.52L63.1887 262.758V262.748L70.4361 252.723Z" stroke="#1F1D18" stroke-linejoin="round"/>
<path d="M134.913 265.317C131.311 266.285 127.308 267.172 122.99 267.95L122.973 267.957L121.699 268.035L121.233 253.158L120.815 239.727L134.087 238.888L134.454 250.48L134.916 265.317H134.913Z" stroke="#1F1D18" stroke-linejoin="round"/>
<path d="M68.8561 190.751L69.2265 237.067" stroke="#1F1D18" stroke-linejoin="round"/>
<path d="M125.47 188.382L127.852 239.282" stroke="#1F1D18" stroke-linejoin="round"/>
<path d="M455.334 119.56C455.249 121.378 446.112 122.988 432.453 123.923H432.43C429.902 124.09 427.214 124.239 424.407 124.361C418.954 124.599 413.028 124.735 406.831 124.752C400.181 124.769 393.861 124.64 388.112 124.395C384.093 124.229 380.358 124.001 376.995 123.729C376.522 123.692 376.057 123.651 375.595 123.614L376.244 115.859C384.667 115.098 395.513 114.618 407.323 114.598C433.972 114.537 455.463 116.759 455.331 119.563L455.334 119.56Z" stroke="#1F1D18" stroke-linejoin="round"/>
<path d="M435.566 123.852L435.705 129.316C436.31 129.269 436.898 129.224 437.479 129.177C438.063 129.126 438.634 129.078 439.195 129.027C439.752 128.98 440.302 128.925 440.839 128.874C441.315 128.827 441.777 128.779 442.236 128.732C442.327 128.721 442.419 128.711 442.507 128.701C442.817 128.67 443.122 128.636 443.418 128.602C443.466 128.599 443.506 128.592 443.551 128.589C443.805 128.558 444.053 128.531 444.298 128.501C444.583 128.467 444.862 128.433 445.137 128.399C445.423 128.365 445.708 128.324 445.983 128.286C446.231 128.256 446.473 128.222 446.71 128.188C446.999 128.151 447.285 128.11 447.567 128.066C447.825 128.028 448.073 127.991 448.314 127.953C448.562 127.916 448.8 127.879 449.035 127.838C449.493 127.763 449.932 127.688 450.353 127.607C450.366 127.607 450.377 127.603 450.383 127.6C450.604 127.559 450.812 127.518 451.019 127.478C451.223 127.437 451.423 127.396 451.617 127.355C451.8 127.315 451.97 127.277 452.143 127.24C452.344 127.196 452.538 127.148 452.725 127.1C453.037 127.026 453.336 126.948 453.615 126.866C453.669 126.849 453.723 126.835 453.771 126.822C453.897 126.784 454.019 126.75 454.141 126.71C454.281 126.669 454.417 126.625 454.539 126.58H454.542C454.671 126.536 454.797 126.492 454.913 126.448C455.032 126.4 455.144 126.356 455.249 126.312L455.327 119.563C455.242 121.378 446.102 122.992 432.443 123.923L435.555 123.852H435.566Z" stroke="#1F1D18" stroke-linejoin="round"/>
<path d="M387.844 129.999C388.207 130.013 388.571 130.026 388.938 130.04C389.859 130.074 390.79 130.105 391.731 130.135C392.203 130.152 392.679 130.162 393.161 130.176C393.637 130.189 394.119 130.2 394.605 130.213C394.993 130.22 395.383 130.23 395.774 130.237C396.165 130.244 396.556 130.251 396.953 130.261C400.113 130.319 403.382 130.346 406.729 130.336C407.582 130.336 408.438 130.329 409.28 130.322C409.749 130.319 410.215 130.315 410.674 130.308C411.057 130.308 411.441 130.302 411.825 130.295C412.899 130.281 413.963 130.264 415.016 130.244C415.631 130.23 416.242 130.22 416.847 130.206C417.282 130.196 417.714 130.186 418.138 130.173C418.601 130.162 419.059 130.149 419.515 130.135C419.572 130.135 419.623 130.132 419.678 130.132C420.048 130.122 420.415 130.111 420.782 130.098C420.819 130.098 420.857 130.098 420.894 130.094C421.156 130.084 421.417 130.077 421.676 130.067C422.148 130.05 422.62 130.033 423.082 130.016C423.232 130.009 423.371 130.006 423.517 129.999C423.867 129.986 424.217 129.972 424.564 129.958L424.418 124.361C418.964 124.599 413.038 124.735 406.841 124.752C400.195 124.769 393.871 124.64 388.119 124.395L387.847 129.999H387.844Z" stroke="#1F1D18" stroke-linejoin="round"/>
<path d="M455.259 126.309L454.919 155.442C452.184 156.71 444.903 157.804 434.94 158.552L434.818 153.998L423.667 154.253L423.796 159.184C418.325 159.405 412.4 159.534 406.209 159.551C399.084 159.568 392.305 159.429 386.192 159.167L386.437 154.103L375.285 154.131L375.068 158.501L374.8 164.101C373.923 164.023 373.07 163.942 372.255 163.857L372.717 158.304L375.136 129.248L375.601 123.617C376.064 123.655 376.529 123.695 377.001 123.733L376.73 129.377L376.512 133.782L387.664 133.758L387.847 130.006C388.207 130.016 388.574 130.033 388.941 130.043C389.865 130.081 390.793 130.111 391.738 130.139C392.203 130.156 392.682 130.166 393.165 130.176C393.637 130.193 394.119 130.203 394.605 130.213C394.993 130.223 395.383 130.23 395.774 130.24C396.168 130.247 396.559 130.251 396.953 130.264C400.117 130.319 403.378 130.349 406.725 130.336C407.581 130.336 408.438 130.329 409.284 130.325C409.749 130.319 410.218 130.319 410.673 130.315C411.057 130.308 411.445 130.305 411.829 130.298C412.902 130.288 413.962 130.271 415.019 130.247C415.631 130.237 416.242 130.223 416.847 130.21C417.282 130.2 417.714 130.186 418.138 130.176C418.604 130.166 419.063 130.152 419.518 130.139H419.678C420.051 130.128 420.418 130.115 420.785 130.101H420.897C421.159 130.091 421.421 130.084 421.675 130.074C422.148 130.057 422.62 130.04 423.082 130.023C423.232 130.016 423.371 130.013 423.517 130.006C423.867 129.989 424.217 129.979 424.564 129.962L424.686 134.427L435.837 134.172L435.715 129.323C436.317 129.279 436.904 129.228 437.489 129.184C438.073 129.133 438.644 129.085 439.201 129.034C439.758 128.983 440.312 128.936 440.846 128.878C441.325 128.834 441.784 128.783 442.246 128.738C442.334 128.728 442.429 128.715 442.517 128.704C442.823 128.677 443.129 128.643 443.425 128.609C443.476 128.602 443.513 128.599 443.564 128.592C443.815 128.565 444.063 128.531 444.308 128.504C444.597 128.47 444.869 128.436 445.147 128.405C445.436 128.368 445.722 128.334 445.997 128.293C446.241 128.259 446.479 128.225 446.721 128.195C447.016 128.157 447.298 128.117 447.577 128.072C447.838 128.035 448.083 128.001 448.328 127.96C448.579 127.923 448.817 127.882 449.051 127.845C449.507 127.767 449.945 127.695 450.37 127.61C450.38 127.61 450.394 127.61 450.397 127.603C450.618 127.566 450.832 127.525 451.036 127.481C451.24 127.444 451.44 127.403 451.63 127.359C451.814 127.321 451.991 127.287 452.157 127.247C452.357 127.196 452.551 127.151 452.741 127.107C453.054 127.029 453.346 126.951 453.632 126.873C453.683 126.856 453.737 126.839 453.788 126.829C453.917 126.791 454.039 126.75 454.155 126.716C454.294 126.672 454.434 126.628 454.556 126.584H454.563C454.692 126.54 454.817 126.496 454.93 126.451C455.052 126.4 455.164 126.356 455.269 126.312L455.259 126.309Z" stroke="#1F1D18" stroke-linejoin="round"/>
<path d="M434.937 158.548L435.083 164.207C447.006 163.252 454.784 161.75 454.865 160.074L454.919 155.446C452.184 156.71 444.903 157.808 434.94 158.548H434.937Z" stroke="#1F1D18" stroke-linejoin="round"/>
<path d="M385.917 164.781H384.847C391.316 165.111 398.615 165.284 406.355 165.267C412.552 165.253 418.482 165.117 423.938 164.88L423.792 159.187C418.322 159.412 412.396 159.541 406.209 159.554C399.077 159.571 392.305 159.435 386.189 159.17L385.921 164.781H385.917Z" stroke="#1F1D18" stroke-linejoin="round"/>
<path d="M424.676 134.42L435.831 134.169L435.705 129.32L435.566 123.855L432.453 123.926H432.436C429.908 124.1 427.224 124.246 424.414 124.365L424.56 129.962L424.679 134.424L424.676 134.42Z" stroke="#1F1D18" stroke-linejoin="round"/>
<path d="M376.512 133.778L387.664 133.754L387.847 130.003L388.119 124.399C384.103 124.232 380.369 124.005 377.002 123.729L376.726 129.374L376.512 133.782V133.778Z" stroke="#1F1D18" stroke-linejoin="round"/>
<path d="M423.938 164.876C427.938 164.703 431.679 164.475 435.083 164.207L434.937 158.548L434.818 153.998L423.663 154.253L423.789 159.184L423.935 164.876H423.938Z" stroke="#1F1D18" stroke-linejoin="round"/>
<path d="M374.8 164.098C377.83 164.37 381.201 164.601 384.833 164.781H384.847H385.917L386.186 159.17L386.427 154.103L375.275 154.127L375.061 158.501L374.793 164.098H374.8Z" stroke="#1F1D18" stroke-linejoin="round"/>
<path d="M429.657 134.329L429.776 154.076" stroke="#1F1D18" stroke-linejoin="round"/>
<path d="M381.867 133.775L380.515 154.117" stroke="#1F1D18" stroke-linejoin="round"/>
<path d="M412.253 275.26H403.569V285.537H412.253V275.26Z" stroke="#1F1D18" stroke-linejoin="round"/>
<path d="M412.253 216.728L448.005 266.445L442.728 273.768L412.253 231.544V275.264H403.572V233.825L373.291 275.264H362.751L403.572 219.015V165.267H412.253V216.728Z" stroke="#1F1D18" stroke-linejoin="round"/>
<path d="M454.345 275.264H454.128L454.24 275.111L454.345 275.264Z" stroke="#1F1D18" stroke-linejoin="round"/>
<path d="M355.905 284.759H366.421L373.291 275.26H362.751L355.905 284.759Z" stroke="#1F1D18" stroke-linejoin="round"/>
<path d="M334.685 281.15C334.685 333.249 292.454 375.487 240.363 375.487C188.271 375.487 146.034 333.249 146.034 281.15C146.034 274.027 146.822 267.094 148.317 260.423C149.7 254.235 151.698 248.281 154.232 242.619C168.969 209.724 201.988 186.809 240.363 186.809C292.454 186.809 334.685 229.04 334.685 281.146V281.15Z" stroke="#1F1D18" stroke-linejoin="round"/>
<path d="M240.359 362.23C285.132 362.23 321.427 325.929 321.427 281.15C321.427 236.37 285.132 200.069 240.359 200.069C195.587 200.069 159.292 236.37 159.292 281.15C159.292 325.929 195.587 362.23 240.359 362.23Z" stroke="#1F1D18" stroke-linejoin="round"/>
<path d="M191.727 89.532C187.792 90.5821 183.409 91.5676 178.686 92.458C171.921 93.7426 164.46 94.8334 156.59 95.6388C149.251 96.3898 142.214 96.835 135.718 96.9846C132.371 97.0695 129.17 97.0729 126.146 97.0083H126.122C109.789 96.6311 98.6887 94.13 98.2708 90.0248C97.6218 83.6801 122.674 75.9184 154.232 72.6798C185.794 69.4378 211.906 71.9559 212.555 78.2938C212.929 81.947 204.761 86.076 191.727 89.5354V89.532Z" stroke="#1F1D18" stroke-linejoin="round"/>
<path d="M122.422 97.2394L123.211 109.65C122.487 109.623 121.783 109.596 121.087 109.562C120.387 109.524 119.704 109.484 119.031 109.439C118.365 109.402 117.703 109.351 117.057 109.3C116.483 109.256 115.929 109.205 115.379 109.154C115.267 109.144 115.158 109.13 115.049 109.12C114.675 109.086 114.308 109.049 113.955 109.008C113.901 109.001 113.85 108.998 113.795 108.991C113.489 108.957 113.19 108.923 112.895 108.885C112.552 108.848 112.215 108.8 111.882 108.763C111.539 108.719 111.193 108.668 110.86 108.617C110.561 108.58 110.272 108.532 109.983 108.484C109.633 108.433 109.286 108.379 108.95 108.318C108.637 108.267 108.338 108.213 108.043 108.158C107.744 108.104 107.455 108.046 107.17 107.985C106.612 107.873 106.079 107.757 105.569 107.628C105.552 107.628 105.542 107.621 105.532 107.618C105.263 107.557 105.009 107.489 104.761 107.424C104.509 107.356 104.264 107.292 104.033 107.224C103.813 107.156 103.598 107.091 103.388 107.03C103.143 106.952 102.905 106.87 102.678 106.792C102.294 106.66 101.927 106.52 101.584 106.374C101.516 106.347 101.451 106.32 101.39 106.289C101.234 106.221 101.084 106.157 100.935 106.082C100.761 106.004 100.595 105.922 100.439 105.837C100.439 105.837 100.432 105.837 100.432 105.83C100.272 105.745 100.116 105.664 99.9697 105.576C99.8202 105.487 99.6809 105.399 99.5483 105.307L98.2742 90.018C98.6921 94.1198 109.793 96.6243 126.126 97.0015L122.429 97.236L122.422 97.2394Z" stroke="#1F1D18" stroke-linejoin="round"/>
<path d="M179.984 105.127C179.556 105.205 179.128 105.283 178.693 105.361C177.609 105.555 176.515 105.745 175.401 105.929C174.843 106.024 174.283 106.112 173.715 106.201C173.155 106.289 172.587 106.378 172.013 106.469C171.558 106.537 171.096 106.609 170.633 106.677C170.171 106.745 169.709 106.809 169.244 106.877C165.513 107.411 161.65 107.883 157.688 108.291C156.675 108.396 155.663 108.491 154.664 108.586C154.107 108.637 153.556 108.685 153.013 108.733C152.557 108.777 152.102 108.817 151.647 108.848C150.372 108.953 149.112 109.049 147.862 109.137C147.134 109.188 146.404 109.235 145.687 109.283C145.17 109.317 144.657 109.344 144.151 109.371C143.601 109.405 143.057 109.433 142.517 109.46C142.449 109.467 142.388 109.467 142.323 109.47C141.885 109.494 141.443 109.514 141.012 109.531C140.967 109.531 140.923 109.538 140.879 109.538C140.566 109.548 140.257 109.565 139.951 109.575C139.391 109.599 138.83 109.62 138.28 109.636C138.103 109.643 137.937 109.647 137.763 109.653C137.345 109.67 136.931 109.681 136.52 109.691L135.714 96.988C142.214 96.8384 149.251 96.3933 156.587 95.6422C164.46 94.8368 171.918 93.746 178.683 92.4614L179.984 105.134V105.127Z" stroke="#1F1D18" stroke-linejoin="round"/>
<path d="M213.843 93.7459C213.476 94.1028 213.038 94.4528 212.542 94.8062C212.419 94.8946 212.29 94.9829 212.158 95.0747C211.896 95.2514 211.614 95.4315 211.319 95.6082C211.172 95.6966 211.023 95.7849 210.867 95.8767C210.248 96.2335 209.572 96.5869 208.831 96.937C208.655 97.0253 208.471 97.1137 208.281 97.1986C207.564 97.5317 206.796 97.8647 205.981 98.1943C205.712 98.3065 205.437 98.4152 205.152 98.524C204.591 98.7449 204.006 98.9624 203.402 99.1799C203.096 99.2852 202.79 99.3973 202.477 99.5027C202.165 99.608 201.849 99.7202 201.526 99.8255C201.013 99.9988 200.486 100.169 199.946 100.339C199.651 100.434 199.358 100.522 199.056 100.617C198.804 100.695 198.556 100.767 198.298 100.845C197.88 100.967 197.466 101.09 197.038 101.212C196.61 101.334 196.175 101.457 195.736 101.579C195.281 101.708 194.819 101.831 194.353 101.953C193.918 102.068 193.477 102.187 193.032 102.296L191.72 89.5354C204.757 86.0759 212.922 81.947 212.549 78.2938L213.84 93.7493L213.843 93.7459Z" stroke="#1F1D18" stroke-linejoin="round"/>
<path d="M130.05 188.668C128.593 188.6 127.193 188.518 125.844 188.413C113.938 187.512 106.266 185.212 105.916 181.807L105.559 177.508L105.043 171.319C107.356 173.005 112.059 174.259 118.484 175.034C121.668 175.418 125.276 175.683 129.235 175.822L129.823 185.103L130.05 188.668Z" stroke="#1F1D18" stroke-linejoin="round"/>
<path d="M189.613 183.604C182.016 185.161 173.403 186.483 164.235 187.424C160.545 187.801 156.93 188.104 153.417 188.331C149.955 188.549 146.584 188.698 143.356 188.777L142.534 175.849C145.962 175.751 149.537 175.577 153.223 175.323C156.536 175.102 159.944 174.806 163.413 174.456C171.857 173.589 179.852 172.42 187.045 171.047L188.346 183.737L189.613 183.608V183.604Z" stroke="#1F1D18" stroke-linejoin="round"/>
<path d="M201.387 180.773L200.092 168.118C209.497 165.627 216.368 162.813 219.371 160.095L220.204 170.079C220.561 173.542 213.245 177.43 201.387 180.77V180.773Z" stroke="#1F1D18" stroke-linejoin="round"/>
<path d="M219.371 160.098C216.371 162.817 209.497 165.631 200.092 168.122L199.076 158.236L185.873 159.592L187.045 171.044C179.852 172.417 171.857 173.586 163.413 174.453C159.944 174.803 156.536 175.098 153.223 175.319C149.537 175.574 145.962 175.747 142.534 175.846L142.177 170.259L141.82 164.655L131.474 165.311L128.572 165.495L129.228 175.826C125.27 175.686 121.661 175.421 118.477 175.037C112.052 174.266 107.35 173.008 105.036 171.323L104.326 162.776L102.114 136.194L99.5416 105.31C99.6741 105.399 99.8134 105.487 99.9629 105.579C100.109 105.667 100.262 105.752 100.425 105.834C100.425 105.841 100.432 105.841 100.432 105.841C100.588 105.926 100.755 106.007 100.928 106.085C101.074 106.157 101.227 106.225 101.383 106.293C101.444 106.32 101.512 106.347 101.577 106.377C101.92 106.524 102.287 106.66 102.671 106.795C102.899 106.874 103.136 106.955 103.381 107.033C103.588 107.101 103.802 107.163 104.027 107.227C104.261 107.295 104.506 107.36 104.754 107.428C105.005 107.496 105.26 107.56 105.525 107.621C105.535 107.628 105.549 107.631 105.562 107.631C106.076 107.761 106.609 107.876 107.163 107.988C107.445 108.049 107.737 108.104 108.036 108.162C108.332 108.216 108.631 108.274 108.943 108.321C109.283 108.383 109.626 108.437 109.976 108.488C110.265 108.539 110.554 108.583 110.853 108.62C111.186 108.671 111.532 108.719 111.876 108.767C112.209 108.804 112.541 108.851 112.888 108.889C113.184 108.926 113.483 108.96 113.788 108.994C113.843 109.001 113.894 109.004 113.948 109.011C114.305 109.049 114.672 109.089 115.042 109.123C115.148 109.134 115.26 109.147 115.372 109.157C115.922 109.208 116.48 109.256 117.05 109.303C117.696 109.354 118.355 109.402 119.024 109.443C119.697 109.487 120.38 109.528 121.08 109.565C121.777 109.599 122.48 109.626 123.204 109.653L123.904 120.667L137.152 119.821L136.513 109.691C136.924 109.681 137.342 109.667 137.756 109.653C137.93 109.647 138.096 109.643 138.273 109.636C138.823 109.619 139.384 109.599 139.945 109.575C140.25 109.565 140.563 109.548 140.872 109.538C140.916 109.538 140.961 109.531 141.005 109.531C141.44 109.514 141.878 109.494 142.316 109.47C142.384 109.463 142.445 109.463 142.51 109.46C143.05 109.433 143.594 109.405 144.144 109.371C144.651 109.344 145.16 109.317 145.68 109.283C146.397 109.239 147.124 109.188 147.855 109.137C149.105 109.049 150.366 108.953 151.64 108.848C152.095 108.814 152.55 108.777 153.006 108.733C153.549 108.688 154.1 108.637 154.657 108.586C155.656 108.491 156.669 108.396 157.681 108.291C161.646 107.886 165.51 107.411 169.237 106.877C169.702 106.809 170.165 106.745 170.627 106.677C171.089 106.609 171.551 106.537 172.006 106.469C172.58 106.381 173.144 106.293 173.708 106.201C174.276 106.112 174.837 106.024 175.394 105.929C176.505 105.745 177.602 105.555 178.686 105.361C179.121 105.283 179.549 105.205 179.977 105.127L180.851 113.613L194.054 112.257L193.032 102.293C193.477 102.181 193.922 102.065 194.353 101.949C194.819 101.827 195.281 101.705 195.736 101.576C196.175 101.453 196.61 101.331 197.038 101.209C197.466 101.086 197.884 100.964 198.298 100.842C198.553 100.763 198.805 100.692 199.056 100.614C199.355 100.519 199.651 100.43 199.946 100.335C200.486 100.169 201.013 99.9955 201.526 99.8221C201.849 99.7168 202.165 99.6047 202.478 99.4993C202.79 99.394 203.096 99.2818 203.402 99.1765C204.007 98.959 204.591 98.7415 205.152 98.5206C205.434 98.4152 205.712 98.3031 205.981 98.1909C206.796 97.8613 207.564 97.5283 208.281 97.1952C208.471 97.1103 208.655 97.0219 208.831 96.9336C209.572 96.5835 210.248 96.2267 210.867 95.8733C211.023 95.7849 211.172 95.6966 211.319 95.6048C211.614 95.4281 211.896 95.248 212.158 95.0713C212.29 94.9829 212.419 94.8946 212.542 94.8028C213.038 94.446 213.476 94.096 213.843 93.7426L219.368 160.095L219.371 160.098Z" stroke="#1F1D18" stroke-linejoin="round"/>
<path d="M137.158 119.814L123.91 120.661L123.211 109.647L122.422 97.236L126.119 97.0015H126.143C129.167 97.0695 132.368 97.0627 135.714 96.9778L136.52 109.681L137.158 119.811V119.814Z" stroke="#1F1D18" stroke-linejoin="round"/>
<path d="M194.061 112.253L180.857 113.609L179.984 105.124L178.683 92.4512C183.409 91.5608 187.789 90.5787 191.724 89.5252L193.035 102.286L194.058 112.25L194.061 112.253Z" stroke="#1F1D18" stroke-linejoin="round"/>
<path d="M143.356 188.773C138.592 188.889 134.124 188.844 130.047 188.668L129.819 185.103L129.231 175.822L128.576 165.491L131.477 165.308L141.824 164.652L142.18 170.256L142.537 175.843L143.359 188.77L143.356 188.773Z" stroke="#1F1D18" stroke-linejoin="round"/>
<path d="M201.387 180.773C197.846 181.776 193.898 182.724 189.63 183.597L189.613 183.604L188.346 183.733L187.045 171.044L185.872 159.592L199.076 158.236L200.092 168.122L201.387 180.777V180.773Z" stroke="#1F1D18" stroke-linejoin="round"/>
<path d="M134.539 164.655L131.25 120.243" stroke="#1F1D18" stroke-linejoin="round"/>
<path d="M187.718 112.926L192.875 158.871" stroke="#1F1D18" stroke-linejoin="round"/>
<path d="M285.108 87.5032C289.043 88.5533 293.426 89.5388 298.149 90.4292C304.914 91.7138 312.376 92.8046 320.245 93.61C327.584 94.361 334.621 94.8062 341.117 94.9558C344.464 95.0407 347.665 95.0441 350.689 94.9795H350.713C367.046 94.6023 378.147 92.1012 378.564 87.996C379.213 81.6513 354.162 73.8896 322.603 70.651C291.041 67.409 264.929 69.9271 264.28 76.265C263.906 79.9182 272.074 84.0471 285.108 87.5066V87.5032Z" stroke="#1F1D18" stroke-linejoin="round"/>
<path d="M354.413 95.2072L353.625 107.618C354.348 107.591 355.052 107.564 355.748 107.53C356.448 107.492 357.131 107.451 357.804 107.407C358.47 107.37 359.132 107.319 359.778 107.268C360.352 107.224 360.906 107.173 361.457 107.122C361.569 107.112 361.677 107.098 361.786 107.088C362.16 107.054 362.527 107.016 362.88 106.976C362.935 106.969 362.986 106.965 363.04 106.959C363.346 106.925 363.645 106.891 363.94 106.853C364.283 106.816 364.62 106.768 364.953 106.731C365.296 106.687 365.643 106.636 365.976 106.585C366.275 106.547 366.563 106.5 366.852 106.452C367.202 106.401 367.549 106.347 367.885 106.286C368.198 106.235 368.497 106.18 368.792 106.126C369.091 106.072 369.38 106.014 369.666 105.953C370.223 105.841 370.756 105.725 371.266 105.596C371.283 105.596 371.293 105.589 371.303 105.586C371.572 105.525 371.827 105.457 372.075 105.392C372.326 105.324 372.571 105.259 372.802 105.191C373.023 105.124 373.237 105.059 373.447 104.998C373.692 104.92 373.93 104.838 374.157 104.76C374.541 104.627 374.908 104.488 375.252 104.342C375.32 104.315 375.384 104.288 375.445 104.257C375.602 104.189 375.751 104.124 375.901 104.05C376.074 103.971 376.24 103.89 376.397 103.805C376.397 103.805 376.403 103.805 376.403 103.798C376.563 103.713 376.719 103.632 376.866 103.543C377.015 103.455 377.154 103.367 377.287 103.275L378.561 87.9858C378.143 92.0876 367.043 94.5921 350.709 94.9693L354.406 95.2038L354.413 95.2072Z" stroke="#1F1D18" stroke-linejoin="round"/>
<path d="M296.848 103.098C297.276 103.176 297.704 103.254 298.139 103.333C299.223 103.526 300.317 103.717 301.431 103.9C301.989 103.995 302.549 104.084 303.117 104.172C303.677 104.26 304.245 104.349 304.819 104.44C305.274 104.508 305.736 104.58 306.198 104.648C306.66 104.716 307.123 104.78 307.588 104.848C311.319 105.382 315.182 105.854 319.144 106.262C320.156 106.367 321.169 106.462 322.168 106.558C322.725 106.609 323.276 106.656 323.819 106.704C324.275 106.748 324.73 106.789 325.185 106.819C326.459 106.925 327.72 107.02 328.97 107.108C329.697 107.159 330.428 107.207 331.145 107.254C331.661 107.288 332.174 107.315 332.681 107.343C333.231 107.377 333.775 107.404 334.315 107.431C334.383 107.438 334.444 107.438 334.509 107.441C334.947 107.465 335.389 107.485 335.82 107.502C335.864 107.502 335.909 107.509 335.953 107.509C336.265 107.519 336.575 107.536 336.88 107.547C337.441 107.57 338.002 107.591 338.552 107.608C338.729 107.614 338.895 107.618 339.069 107.625C339.486 107.642 339.901 107.652 340.312 107.662L341.117 94.9591C334.617 94.8096 327.581 94.3644 320.245 93.6134C312.372 92.808 304.914 91.7172 298.149 90.4326L296.848 103.105V103.098Z" stroke="#1F1D18" stroke-linejoin="round"/>
<path d="M262.989 91.7172C263.356 92.074 263.794 92.424 264.29 92.7774C264.412 92.8658 264.542 92.9541 264.674 93.0459C264.936 93.2226 265.218 93.4027 265.513 93.5794C265.659 93.6678 265.809 93.7562 265.965 93.8479C266.584 94.2047 267.26 94.5582 268 94.9082C268.177 94.9965 268.361 95.0849 268.551 95.1699C269.268 95.5029 270.036 95.8359 270.851 96.1656C271.12 96.2777 271.395 96.3865 271.68 96.4952C272.241 96.7161 272.825 96.9336 273.43 97.1511C273.736 97.2564 274.042 97.3686 274.354 97.4739C274.667 97.5793 274.983 97.6914 275.306 97.7968C275.819 97.9701 276.345 98.14 276.886 98.3099C277.181 98.4051 277.473 98.4934 277.776 98.5886C278.027 98.6667 278.275 98.7381 278.534 98.8162C278.952 98.9386 279.366 99.0609 279.794 99.1833C280.222 99.3056 280.657 99.4279 281.096 99.5503C281.551 99.6794 282.013 99.8018 282.478 99.9241C282.913 100.04 283.355 100.159 283.8 100.267L285.112 87.5066C272.074 84.0472 263.91 79.9182 264.283 76.265L262.992 91.7206L262.989 91.7172Z" stroke="#1F1D18" stroke-linejoin="round"/>
<path d="M347.6 173.797L346.785 186.639C361.066 185.99 370.532 183.563 370.923 179.778L371.796 169.291C368.337 171.809 359.527 173.379 347.604 173.793L347.6 173.797Z" stroke="#1F1D18" stroke-linejoin="round"/>
<path d="M288.489 181.701L287.222 181.572C294.819 183.129 303.433 184.45 312.6 185.392C319.939 186.15 326.979 186.588 333.479 186.744L334.301 173.817C327.788 173.627 320.748 173.171 313.422 172.42C304.979 171.554 296.984 170.385 289.79 169.012L288.489 181.701Z" stroke="#1F1D18" stroke-linejoin="round"/>
<path d="M275.448 178.745L276.743 166.089C267.338 163.598 260.468 160.785 257.464 158.066L256.631 168.05C256.275 171.513 263.59 175.401 275.448 178.741V178.745Z" stroke="#1F1D18" stroke-linejoin="round"/>
<path d="M377.294 103.282L376.247 115.859L375.598 123.614L375.133 129.245L372.713 158.3L372.251 163.853L371.796 169.291C368.337 171.809 359.527 173.379 347.604 173.793L348.26 163.462L335.012 162.623L334.301 173.814C327.788 173.623 320.748 173.168 313.422 172.417C304.979 171.55 296.984 170.381 289.79 169.008L290.963 157.556L277.759 156.2L276.743 166.086C267.338 163.595 260.468 160.781 257.464 158.063L262.989 91.7104C263.356 92.0672 263.794 92.4172 264.29 92.7706C264.412 92.859 264.542 92.9473 264.674 93.0391C264.936 93.2158 265.218 93.3959 265.513 93.5726C265.659 93.661 265.809 93.7494 265.965 93.8411C266.584 94.1979 267.26 94.5514 268 94.9014C268.177 94.9897 268.361 95.0781 268.551 95.163C269.268 95.4961 270.036 95.8291 270.851 96.1588C271.12 96.2709 271.395 96.3796 271.68 96.4884C272.241 96.7093 272.825 96.9268 273.43 97.1443C273.736 97.2496 274.042 97.3618 274.354 97.4671C274.667 97.5725 274.983 97.6846 275.306 97.79C275.819 97.9633 276.345 98.1332 276.886 98.3031C277.181 98.3982 277.474 98.4866 277.776 98.5818C278.027 98.6599 278.275 98.7313 278.53 98.8094C278.948 98.9318 279.363 99.0541 279.791 99.1765C280.219 99.2988 280.654 99.4211 281.092 99.5435C281.547 99.6726 282.01 99.795 282.475 99.9173C282.91 100.033 283.352 100.152 283.797 100.261L282.774 110.224L295.978 111.58L296.851 103.095C297.279 103.173 297.707 103.251 298.142 103.329C299.226 103.523 300.32 103.713 301.435 103.897C301.992 103.992 302.553 104.08 303.12 104.169C303.681 104.257 304.248 104.345 304.822 104.437C305.278 104.505 305.74 104.576 306.202 104.644C306.664 104.712 307.126 104.777 307.591 104.845C311.322 105.378 315.186 105.851 319.147 106.259C320.16 106.364 321.172 106.459 322.171 106.554C322.729 106.605 323.279 106.653 323.823 106.7C324.278 106.745 324.733 106.785 325.189 106.816C326.463 106.921 327.723 107.016 328.974 107.105C329.701 107.156 330.431 107.203 331.148 107.251C331.665 107.285 332.178 107.312 332.684 107.339C333.235 107.373 333.778 107.4 334.318 107.428C334.386 107.434 334.448 107.434 334.512 107.438C334.95 107.462 335.389 107.482 335.824 107.499C335.868 107.499 335.912 107.506 335.956 107.506C336.269 107.516 336.578 107.533 336.884 107.543C337.444 107.567 338.008 107.587 338.556 107.604C338.732 107.611 338.899 107.614 339.072 107.621C339.49 107.638 339.904 107.648 340.316 107.659L339.677 117.789L352.925 118.635L353.625 107.621C354.348 107.594 355.055 107.567 355.748 107.533C356.448 107.496 357.131 107.455 357.804 107.411C358.47 107.373 359.132 107.322 359.778 107.271C360.349 107.227 360.906 107.176 361.457 107.129C361.569 107.118 361.681 107.105 361.786 107.095C362.16 107.061 362.527 107.023 362.88 106.982C362.935 106.976 362.986 106.972 363.04 106.965C363.346 106.931 363.645 106.897 363.94 106.86C364.284 106.823 364.62 106.775 364.953 106.738C365.296 106.694 365.643 106.643 365.976 106.595C366.275 106.558 366.563 106.51 366.856 106.462C367.206 106.411 367.552 106.357 367.889 106.296C368.201 106.245 368.5 106.191 368.796 106.136C369.095 106.082 369.384 106.024 369.669 105.963C370.226 105.851 370.76 105.735 371.269 105.606C371.286 105.606 371.297 105.599 371.307 105.596C371.575 105.535 371.83 105.467 372.078 105.402C372.326 105.338 372.574 105.27 372.805 105.202C373.026 105.134 373.244 105.073 373.451 105.008C373.695 104.93 373.933 104.848 374.161 104.77C374.545 104.638 374.912 104.498 375.255 104.352C375.323 104.325 375.388 104.298 375.449 104.267C375.605 104.199 375.761 104.135 375.904 104.06C376.077 103.982 376.244 103.9 376.4 103.815C376.4 103.815 376.407 103.815 376.407 103.808C376.567 103.723 376.723 103.642 376.869 103.553C377.018 103.465 377.158 103.377 377.29 103.285L377.294 103.282Z" stroke="#1F1D18" stroke-linejoin="round"/>
<path d="M339.673 117.786L352.921 118.632L353.621 107.618L354.41 95.2073L350.713 94.9728H350.689C347.665 95.0407 344.464 95.0339 341.117 94.949L340.312 107.652L339.673 117.782V117.786Z" stroke="#1F1D18" stroke-linejoin="round"/>
<path d="M282.774 110.224L295.978 111.58L296.851 103.095L298.152 90.4224C293.426 89.532 289.046 88.5499 285.112 87.4965L283.8 100.257L282.777 110.221L282.774 110.224Z" stroke="#1F1D18" stroke-linejoin="round"/>
<path d="M333.476 186.744C338.24 186.86 342.708 186.816 346.785 186.639L347.6 173.797L348.256 163.466L335.008 162.626L334.298 173.817L333.476 186.744Z" stroke="#1F1D18" stroke-linejoin="round"/>
<path d="M275.448 178.745C278.989 179.747 282.937 180.695 287.205 181.569L287.222 181.575L288.489 181.705L289.79 169.015L290.963 157.563L277.759 156.207L276.743 166.093L275.448 178.748V178.745Z" stroke="#1F1D18" stroke-linejoin="round"/>
<path d="M345.586 118.21L342.273 162.997" stroke="#1F1D18" stroke-linejoin="round"/>
<path d="M289.114 110.897L283.956 156.839" stroke="#1F1D18" stroke-linejoin="round"/>
<path d="M527.666 24.648H417.282C412.917 24.648 409.379 28.1869 409.379 32.5525C409.379 36.918 412.917 40.457 417.282 40.457H527.666C532.031 40.457 535.569 36.918 535.569 32.5525C535.569 28.1869 532.031 24.648 527.666 24.648Z" stroke="#1F1D18" stroke-linejoin="round"/>
<path d="M527.666 40.457H417.282C412.917 40.457 409.379 43.9959 409.379 48.3615C409.379 52.727 412.917 56.2659 417.282 56.2659H527.666C532.031 56.2659 535.569 52.727 535.569 48.3615C535.569 43.9959 532.031 40.457 527.666 40.457Z" stroke="#1F1D18" stroke-linejoin="round"/>
<path d="M466.737 7.56464L458.834 24.648H491.211L482.978 7.56464H466.737Z" stroke="#1F1D18" stroke-linejoin="round"/>
<path d="M483.308 73.3459L491.211 56.2625H458.834L467.067 73.3459H483.308Z" stroke="#1F1D18" stroke-linejoin="round"/>
<path d="M483.651 0.509735H465.548C464 0.509735 462.745 1.76495 462.745 3.31335V4.76103C462.745 6.30942 464 7.56464 465.548 7.56464H483.651C485.199 7.56464 486.454 6.30942 486.454 4.76103V3.31335C486.454 1.76495 485.199 0.509735 483.651 0.509735Z" stroke="#1F1D18" stroke-linejoin="round"/>
<path d="M480.631 321.178H470.434V333.246H480.631V321.178Z" stroke="#1F1D18" stroke-linejoin="round"/>
<path d="M544.451 321.182H532.076L480.627 250.048V321.182H470.434V252.723L454.24 275.111L454.128 275.264L420.921 321.182H408.547L442.728 273.768L448.005 266.445L470.434 235.333V73.3459H480.627V232.645L544.451 321.182Z" stroke="#1F1D18" stroke-linejoin="round"/>
<path d="M400.511 332.328H412.858L420.921 321.178H408.547L400.511 332.328Z" stroke="#1F1D18" stroke-linejoin="round"/>
<path d="M532.08 321.178L540.143 332.328H552.49L544.451 321.178H532.08Z" stroke="#1F1D18" stroke-linejoin="round"/>
<path d="M127.665 24.648H17.2812C12.9163 24.648 9.3779 28.1869 9.3779 32.5525C9.3779 36.918 12.9163 40.457 17.2812 40.457H127.665C132.03 40.457 135.568 36.918 135.568 32.5525C135.568 28.1869 132.03 24.648 127.665 24.648Z" stroke="#1F1D18" stroke-linejoin="round"/>
<path d="M127.665 40.457H17.2812C12.9163 40.457 9.3779 43.9959 9.3779 48.3615C9.3779 52.727 12.9163 56.2659 17.2812 56.2659H127.665C132.03 56.2659 135.568 52.727 135.568 48.3615C135.568 43.9959 132.03 40.457 127.665 40.457Z" stroke="#1F1D18" stroke-linejoin="round"/>
<path d="M66.7393 7.56464L58.8361 24.648H91.2102L82.9808 7.56464H66.7393Z" stroke="#1F1D18" stroke-linejoin="round"/>
<path d="M91.2102 56.2625L83.3103 73.3459H67.0655L58.8327 56.2625H91.2102Z" stroke="#1F1D18" stroke-linejoin="round"/>
<path d="M83.6501 0.509735H65.5467C63.9986 0.509735 62.7435 1.76495 62.7435 3.31335V4.76103C62.7435 6.30942 63.9986 7.56464 65.5467 7.56464H83.6501C85.1983 7.56464 86.4533 6.30942 86.4533 4.76103V3.31335C86.4533 1.76495 85.1983 0.509735 83.6501 0.509735Z" stroke="#1F1D18" stroke-linejoin="round"/>
<path d="M80.6329 321.182H70.4362V333.246H80.6329V321.182Z" stroke="#1F1D18" stroke-linejoin="round"/>
<path d="M144.453 321.182H132.079L95.8414 271.08L85.1451 256.287L80.6295 250.048V321.182H70.4361V252.723L63.1852 262.748V262.758L58.0512 269.847L20.9236 321.182H8.54883L47.338 267.373L56.4984 254.663L63.2158 245.345L64.6361 243.377L69.1857 237.067L70.4361 235.333V73.3459H80.6295V232.645L97.3296 255.815L107.649 270.125L144.453 321.182Z" stroke="#1F1D18" stroke-linejoin="round"/>
<path d="M20.9236 321.182L12.8572 332.328H0.509674L8.54884 321.182H20.9236Z" stroke="#1F1D18" stroke-linejoin="round"/>
<path d="M152.489 332.328H140.145L132.079 321.182H144.453L152.489 332.328Z" stroke="#1F1D18" stroke-linejoin="round"/>
<path d="M258.137 150.002H218.529L217.095 132.765H259.571L258.137 150.002Z" stroke="#1F1D18" stroke-linejoin="round"/>
<path d="M173.053 215.056L163.671 225.312L160.043 187.825L170.317 186.809L173.053 215.056Z" stroke="#1F1D18" stroke-linejoin="round"/>
<path d="M311.234 218.899L301.55 209.353L305.383 184.563L315.654 185.691L311.234 218.899Z" stroke="#1F1D18" stroke-linejoin="round"/>
</g>
<defs>
<clipPath id="clip0_9_45">
<rect width="553" height="376" fill="white"/>
</clipPath>
</defs>
</svg>
