<?xml version="1.0" encoding="UTF-8"?>
<svg id="Layer_2" xmlns="http://www.w3.org/2000/svg" version="1.1" viewBox="0 0 32 32">
  <!-- Generator: Adobe Illustrator 29.4.0, SVG Export Plug-In . SVG Version: 2.1.0 Build 152)  -->
  <path d="M24.3,25.5c3.7,0,6.7-3,6.7-6.8s-1.4-4.8-3.5-6c.1-1.2.6-3.7,2.6-4.2.5-.1.8-.6.7-1.1s-.5-.9-1-.9h-.2c-1,0-6.4.2-9.8,4.9-2.3,3-2.9,6.3-1.9,9.2.9,2.9,3.4,4.8,6.4,4.8Z"/>
  <path d="M1.5,20.6c.9,2.9,3.4,4.8,6.4,4.8s6.7-3,6.7-6.8-1.4-4.8-3.5-6c.1-1.2.6-3.7,2.6-4.2.5-.1.8-.6.7-1.1s-.5-.9-1-.9h-.1c-1,0-6.4.2-9.8,4.9-2.3,3-2.9,6.3-1.9,9.2Z"/>
</svg>