<svg width="464" height="71" viewBox="0 0 464 71" fill="none" xmlns="http://www.w3.org/2000/svg">
<path d="M2.928 57V18.12H12.096C15.264 18.12 17.728 18.552 19.488 19.416C21.28 20.28 22.544 21.608 23.28 23.4C24.048 25.192 24.432 27.464 24.432 30.216V44.424C24.432 47.24 24.048 49.592 23.28 51.48C22.544 53.336 21.296 54.728 19.536 55.656C17.808 56.552 15.424 57 12.384 57H2.928ZM10.032 52.056H12.192C13.824 52.056 14.992 51.768 15.696 51.192C16.4 50.616 16.832 49.784 16.992 48.696C17.152 47.576 17.232 46.216 17.232 44.616V29.736C17.232 28.168 17.12 26.904 16.896 25.944C16.672 24.984 16.208 24.28 15.504 23.832C14.8 23.384 13.664 23.16 12.096 23.16H10.032V52.056ZM29.6468 57V18.12H38.9588C41.5828 18.12 43.7908 18.44 45.5828 19.08C47.4068 19.688 48.7828 20.744 49.7108 22.248C50.6708 23.752 51.1508 25.8 51.1508 28.392C51.1508 29.96 51.0068 31.368 50.7188 32.616C50.4308 33.864 49.9348 34.936 49.2308 35.832C48.5588 36.696 47.6148 37.368 46.3988 37.848L51.8228 57H44.7188L40.0148 39.192H36.7508V57H29.6468ZM36.7508 34.728H38.9588C40.3348 34.728 41.4228 34.536 42.2228 34.152C43.0548 33.736 43.6468 33.096 43.9988 32.232C44.3508 31.336 44.5268 30.2 44.5268 28.824C44.5268 26.872 44.1588 25.416 43.4228 24.456C42.7188 23.464 41.3588 22.968 39.3428 22.968H36.7508V34.728ZM67.0684 57.528C64.1884 57.528 61.9484 57 60.3484 55.944C58.7484 54.888 57.6444 53.384 57.0364 51.432C56.4284 49.48 56.1244 47.144 56.1244 44.424V18.12H63.0364V45.24C63.0364 46.456 63.1164 47.608 63.2764 48.696C63.4364 49.752 63.8044 50.616 64.3804 51.288C64.9884 51.928 65.8844 52.248 67.0684 52.248C68.3164 52.248 69.2124 51.928 69.7564 51.288C70.3324 50.616 70.7004 49.752 70.8604 48.696C71.0524 47.608 71.1484 46.456 71.1484 45.24V18.12H78.0124V44.424C78.0124 47.144 77.7084 49.48 77.1004 51.432C76.4924 53.384 75.3884 54.888 73.7884 55.944C72.2204 57 69.9804 57.528 67.0684 57.528ZM83.5039 57L84.1759 18.12H91.5199L97.0399 45.048L102.8 18.12H109.904L110.624 57H105.344L104.768 29.976L99.2479 57H94.9759L89.3599 29.88L88.8319 57H83.5039ZM125.876 57.528C123.54 57.528 121.588 57.08 120.02 56.184C118.452 55.256 117.268 53.912 116.468 52.152C115.668 50.392 115.22 48.232 115.124 45.672L121.22 44.472C121.284 45.976 121.46 47.304 121.748 48.456C122.068 49.608 122.532 50.504 123.14 51.144C123.78 51.752 124.612 52.056 125.636 52.056C126.788 52.056 127.604 51.72 128.084 51.048C128.564 50.344 128.804 49.464 128.804 48.408C128.804 46.712 128.42 45.32 127.652 44.232C126.884 43.144 125.86 42.056 124.58 40.968L119.684 36.648C118.308 35.464 117.204 34.152 116.372 32.712C115.572 31.24 115.172 29.432 115.172 27.288C115.172 24.216 116.068 21.848 117.86 20.184C119.652 18.52 122.1 17.688 125.204 17.688C127.028 17.688 128.548 17.976 129.764 18.552C130.98 19.096 131.94 19.864 132.644 20.856C133.38 21.848 133.924 22.984 134.276 24.264C134.628 25.512 134.852 26.84 134.948 28.248L128.9 29.304C128.836 28.088 128.692 27 128.468 26.04C128.276 25.08 127.908 24.328 127.364 23.784C126.852 23.24 126.084 22.968 125.06 22.968C124.004 22.968 123.188 23.32 122.612 24.024C122.068 24.696 121.796 25.544 121.796 26.568C121.796 27.88 122.068 28.968 122.612 29.832C123.156 30.664 123.94 31.528 124.964 32.424L129.812 36.696C131.412 38.04 132.772 39.624 133.892 41.448C135.044 43.24 135.62 45.416 135.62 47.976C135.62 49.832 135.204 51.48 134.372 52.92C133.572 54.36 132.436 55.496 130.964 56.328C129.524 57.128 127.828 57.528 125.876 57.528ZM155.363 57V23.352H149.171V18.12H168.563V23.352H162.467V57H155.363ZM182.472 57.528C179.72 57.528 177.528 57.016 175.896 55.992C174.264 54.968 173.096 53.496 172.392 51.576C171.688 49.656 171.336 47.384 171.336 44.76V30.216C171.336 27.592 171.688 25.352 172.392 23.496C173.096 21.608 174.264 20.168 175.896 19.176C177.528 18.184 179.72 17.688 182.472 17.688C185.288 17.688 187.496 18.184 189.096 19.176C190.728 20.168 191.896 21.608 192.6 23.496C193.336 25.352 193.704 27.592 193.704 30.216V44.808C193.704 47.4 193.336 49.656 192.6 51.576C191.896 53.464 190.728 54.936 189.096 55.992C187.496 57.016 185.288 57.528 182.472 57.528ZM182.472 52.296C183.656 52.296 184.52 52.04 185.064 51.528C185.64 51.016 186.024 50.312 186.216 49.416C186.408 48.52 186.504 47.544 186.504 46.488V28.584C186.504 27.496 186.408 26.52 186.216 25.656C186.024 24.792 185.64 24.12 185.064 23.64C184.52 23.128 183.656 22.872 182.472 22.872C181.352 22.872 180.504 23.128 179.928 23.64C179.352 24.12 178.968 24.792 178.776 25.656C178.584 26.52 178.488 27.496 178.488 28.584V46.488C178.488 47.544 178.568 48.52 178.728 49.416C178.92 50.312 179.304 51.016 179.88 51.528C180.456 52.04 181.32 52.296 182.472 52.296ZM210.823 57V18.12H217.831V57H210.823ZM223.85 57V18.12H228.794L238.25 40.296V18.12H244.106V57H239.402L229.898 33.768V57H223.85ZM250.006 57V18.12H265.99V23.016H257.11V34.344H264.358V39.288H257.11V57H250.006ZM270.026 57V18.12H277.034V57H270.026ZM283.053 57V18.12H287.997L297.453 40.296V18.12H303.309V57H298.605L289.101 33.768V57H283.053ZM309.401 57V18.12H316.409V57H309.401ZM326.316 57V23.352H320.124V18.12H339.516V23.352H333.42V57H326.316ZM348.477 57V42.168L340.605 18.12H347.229L352.029 33.528L356.541 18.12H363.021L355.245 42.168V57H348.477Z" fill="white"/>
<circle cx="411" cy="35" r="5" fill="white"/>
</svg>
