<?xml version="1.0" encoding="UTF-8"?>
<svg id="Layer_1" xmlns="http://www.w3.org/2000/svg" version="1.1" viewBox="0 0 512 512">
  <!-- Generator: Adobe Illustrator 29.4.0, SVG Export Plug-In . SVG Version: 2.1.0 Build 152)  -->
  <path d="M135.7,110.1c14.3,11.6,30.8,15.8,43.9,13.1l259.9,223.1c10.6,9,26.7,7.2,35.7-3.8,9-11,7.4-27.2-3.6-35.7L200.5,98.4c0-13.3-7.9-28.8-22.3-40.5-21.1-17.1-47.7-19.3-59.4-4.9-11.8,14.4-4.2,40,16.9,57.1h0ZM41.7,92.9c-15,11-14.1,37.7,2,59.6,10.9,14.9,26,23.6,39.3,24.3l194.3,281.4c8,11.4,24,13.8,35.5,5.4s14-24.4,5.6-35.5L108.8,157.1c3.2-12.9,0-29.6-10.9-44.4-16-21.9-41.2-30.8-56.2-19.8h0Z"/>
</svg>